<svg xmlns="http://www.w3.org/2000/svg" width="2480" height="3508" viewBox="0 0 2480 3508" version="1.1"><path d="M 1020.988 1469.752 C 999.613 1480.430, 993.541 1482.764, 979.128 1485.842 C 973.654 1487.011, 972.918 1488.156, 973.241 1495 L 973.500 1500.500 980.500 1501.016 C 988.467 1501.604, 994.060 1503.960, 996.691 1507.836 C 998.404 1510.358, 998.527 1516.752, 999 1627.677 C 999.500 1744.811, 999.501 1744.855, 1001.602 1747.677 C 1005.012 1752.255, 1017.440 1751.943, 1029.500 1746.976 C 1030.600 1746.523, 1034.200 1745.398, 1037.500 1744.476 C 1040.800 1743.554, 1044.400 1742.458, 1045.500 1742.040 C 1047.786 1741.171, 1056.596 1738.644, 1062.500 1737.162 C 1064.700 1736.611, 1069.331 1735.371, 1072.792 1734.408 L 1079.084 1732.658 1078.792 1726.079 L 1078.500 1719.500 1071 1718.955 C 1062.040 1718.303, 1059.273 1717.072, 1055.982 1712.269 L 1053.500 1708.647 1053 1588.074 C 1052.473 1460.934, 1052.612 1464.468, 1048.043 1462.023 C 1043.401 1459.539, 1038.806 1460.851, 1020.988 1469.752 M 1280 1461.727 C 1278.303 1462.371, 1270.965 1465.667, 1260.177 1470.631 C 1256.149 1472.484, 1252.302 1474, 1251.627 1474 C 1250.952 1474, 1249.973 1474.387, 1249.450 1474.860 C 1248.928 1475.333, 1246.025 1476.520, 1243 1477.497 C 1239.975 1478.474, 1236.600 1479.623, 1235.500 1480.051 C 1232.564 1481.193, 1225.083 1483.083, 1220.500 1483.839 L 1216.500 1484.500 1216.500 1491.500 L 1216.500 1498.500 1219.909 1498.165 C 1227.380 1497.430, 1235.647 1501.247, 1239.185 1507.063 C 1241.709 1511.214, 1242.001 1563, 1239.500 1563 C 1238.675 1563, 1238 1562.579, 1238 1562.064 C 1238 1560.808, 1227.387 1550.091, 1223 1546.917 C 1219.899 1544.673, 1215.961 1542.671, 1209.500 1540.055 C 1199.128 1535.855, 1175.356 1535.796, 1165.500 1539.946 C 1164.400 1540.409, 1161.285 1541.578, 1158.577 1542.543 C 1154.019 1544.167, 1140.142 1551.503, 1139 1552.892 C 1138.725 1553.226, 1135.519 1556.076, 1131.876 1559.224 C 1120.087 1569.411, 1108.683 1586.673, 1104.608 1600.500 C 1103.636 1603.800, 1102.460 1607.625, 1101.996 1609 C 1099.119 1617.516, 1098.500 1623.623, 1098.500 1643.500 C 1098.500 1657.367, 1098.925 1665.944, 1099.750 1668.750 C 1100.438 1671.088, 1101.497 1674.912, 1102.103 1677.250 C 1110.354 1709.029, 1132.841 1734.957, 1160.500 1744.583 C 1163.800 1745.732, 1167.175 1746.939, 1168 1747.266 C 1174.795 1749.963, 1195.532 1750.476, 1207.188 1748.237 C 1218.999 1745.967, 1232.496 1736.034, 1238.646 1725.083 C 1243.193 1716.987, 1244.146 1719.279, 1241.835 1732.756 C 1238.349 1753.083, 1248.671 1755.931, 1278 1742.736 C 1285.237 1739.480, 1301.091 1733.617, 1308 1731.641 C 1311.025 1730.776, 1315.412 1729.494, 1317.750 1728.791 L 1322 1727.513 1322 1719.474 L 1322 1711.435 1315.124 1711.823 C 1303.845 1712.460, 1297.780 1708.125, 1296.533 1698.533 C 1296.245 1696.315, 1295.894 1643.048, 1295.754 1580.163 L 1295.500 1465.826 1292.694 1463.413 C 1289.936 1461.041, 1283.916 1460.241, 1280 1461.727 M 721.516 1489.974 C 717.693 1496.159, 720.780 1503.839, 727.583 1505.072 C 730.838 1505.661, 734.281 1506.561, 735.236 1507.072 C 736.191 1507.582, 737.546 1508, 738.247 1508 C 740.311 1508, 744.893 1512.809, 746.506 1516.668 C 748.739 1522.012, 748.760 1715.937, 746.528 1721.279 C 744.153 1726.964, 735.586 1730.599, 723 1731.263 L 718.500 1731.500 718.500 1738.500 L 718.500 1745.500 789.500 1745.765 C 836.331 1745.939, 863.393 1745.659, 869 1744.942 C 891.972 1742.002, 898.621 1740.809, 901.949 1739.028 C 903.005 1738.462, 904.997 1738, 906.375 1738 C 907.754 1738, 909.160 1737.550, 909.500 1737 C 909.840 1736.450, 910.817 1736, 911.671 1736 C 914.732 1736, 931.329 1726.899, 937.356 1721.916 C 948.670 1712.563, 958 1696.431, 958 1686.223 C 958 1684.168, 958.432 1680.981, 958.960 1679.140 C 964.644 1659.320, 945.539 1629.496, 919.500 1617.542 C 917.300 1616.532, 914.719 1615.322, 913.764 1614.853 C 912.809 1614.384, 911.211 1614, 910.214 1614 C 909.216 1614, 907.972 1613.576, 907.450 1613.057 C 906.435 1612.051, 900.491 1610.405, 892.753 1608.990 C 885.615 1607.684, 883.306 1604.877, 888.250 1603.515 C 891.871 1602.518, 906.579 1594.919, 909.349 1592.614 C 910.746 1591.451, 913.295 1589.412, 915.014 1588.083 C 931.828 1575.072, 936.150 1543.665, 923.694 1525 C 916.797 1514.663, 894.830 1499.090, 886.992 1498.979 C 886.171 1498.967, 882.350 1497.844, 878.500 1496.483 C 874.650 1495.122, 869.617 1494.007, 867.315 1494.004 C 865.013 1494.002, 861.863 1493.510, 860.315 1492.911 C 857.172 1491.695, 827.136 1489.569, 814 1489.633 C 809.325 1489.655, 787.725 1489.840, 766 1490.044 C 744.275 1490.247, 725.525 1490.077, 724.334 1489.666 C 723.074 1489.231, 721.896 1489.360, 721.516 1489.974 M 806.250 1505.662 C 804.850 1506.227, 804.381 1604.479, 805.768 1606.658 C 807.112 1608.770, 830.169 1603.837, 845.500 1598.157 C 870.651 1588.838, 881.921 1568.500, 876.862 1541.560 C 871.927 1515.282, 856.435 1505.090, 821.500 1505.139 C 813.800 1505.149, 806.938 1505.385, 806.250 1505.662 M 1421.500 1538.493 C 1410.863 1540.875, 1404.914 1542.811, 1398.624 1545.938 C 1395.238 1547.622, 1392.080 1549, 1391.606 1549 C 1389.797 1549, 1376.230 1559.614, 1370.304 1565.665 C 1360.860 1575.309, 1359.204 1577.723, 1351.220 1593.500 C 1340.043 1615.585, 1337.842 1655.002, 1346.376 1680.271 C 1347.819 1684.545, 1349 1688.445, 1349 1688.938 C 1349 1695.025, 1369.782 1721.438, 1381.596 1730.366 C 1403.574 1746.974, 1442.925 1754.977, 1463.500 1747.023 C 1464.600 1746.597, 1468.200 1745.463, 1471.500 1744.502 C 1484.013 1740.858, 1503.396 1728.684, 1510.476 1720.023 C 1511.589 1718.661, 1514.525 1715.219, 1517 1712.373 C 1519.475 1709.528, 1522.387 1705.468, 1523.472 1703.350 C 1524.556 1701.233, 1526.403 1697.925, 1527.576 1696 C 1530.019 1691.990, 1535 1678.089, 1535 1675.282 C 1535 1674.247, 1535.434 1672.966, 1535.963 1672.437 C 1540.269 1668.131, 1540.353 1620.781, 1536.076 1609.730 C 1535.601 1608.503, 1534.386 1604.800, 1533.375 1601.500 C 1530.094 1590.784, 1522.729 1578.264, 1514.350 1569.157 C 1505.570 1559.612, 1495.502 1552.196, 1483.662 1546.552 C 1469.196 1539.655, 1461.271 1537.930, 1442 1537.485 C 1432.344 1537.262, 1425.495 1537.599, 1421.500 1538.493 M 1551.676 1539.658 C 1551.304 1540.029, 1551 1543.135, 1551 1546.560 C 1551 1553.557, 1551.028 1553.585, 1559.596 1555.002 C 1569.064 1556.568, 1581.614 1565.058, 1583.570 1571.220 C 1583.881 1572.199, 1584.554 1573, 1585.067 1573 C 1585.580 1573, 1586 1573.506, 1586 1574.124 C 1586 1574.742, 1587.800 1577.943, 1590 1581.238 C 1592.200 1584.532, 1594 1587.454, 1594 1587.730 C 1594 1588.006, 1595.575 1590.378, 1597.500 1593 C 1599.425 1595.622, 1601 1598.049, 1601 1598.392 C 1601 1598.735, 1608.425 1610.886, 1617.500 1625.395 C 1633.942 1651.683, 1635.345 1654.639, 1632.500 1657 C 1631.675 1657.685, 1631 1658.672, 1631 1659.194 C 1631 1659.716, 1630.438 1660.770, 1629.750 1661.537 C 1628.127 1663.346, 1626.743 1665.209, 1625.500 1667.256 C 1617.684 1680.126, 1596.148 1709.828, 1590.882 1715 C 1579.637 1726.045, 1577.574 1726.975, 1554.206 1731.535 L 1550.913 1732.178 1551.206 1738.721 L 1551.500 1745.264 1594.500 1745.240 L 1637.500 1745.216 1637.793 1738.736 C 1638.129 1731.284, 1638.398 1731.494, 1628 1731.095 C 1611.421 1730.458, 1610.890 1722.762, 1625.958 1701.500 C 1629.076 1697.100, 1634.022 1689.900, 1636.949 1685.500 C 1647.060 1670.300, 1645.429 1670.150, 1656.125 1687.263 C 1660.676 1694.544, 1664.651 1700.725, 1664.959 1701 C 1665.267 1701.275, 1666.405 1703.188, 1667.487 1705.250 C 1668.569 1707.313, 1669.802 1709, 1670.227 1709 C 1670.652 1709, 1671 1709.424, 1671 1709.943 C 1671 1710.461, 1672.013 1712.595, 1673.250 1714.685 C 1679.492 1725.225, 1678.108 1730.971, 1669.316 1731.014 C 1662.594 1731.046, 1662 1731.664, 1662 1738.617 C 1662 1742.127, 1662.338 1745.017, 1662.750 1745.037 C 1663.162 1745.058, 1685.775 1745.112, 1713 1745.157 L 1762.500 1745.238 1762.500 1738.907 L 1762.500 1732.575 1758.500 1731.744 C 1745.848 1729.116, 1741.550 1726.545, 1734.809 1717.573 C 1732.300 1714.233, 1730.078 1711.050, 1729.872 1710.500 C 1729.667 1709.950, 1727.361 1706.271, 1724.749 1702.325 C 1722.137 1698.379, 1720 1694.704, 1720 1694.158 C 1720 1693.613, 1719.638 1693.017, 1719.196 1692.833 C 1718.545 1692.564, 1701.321 1665.829, 1697.500 1659.158 C 1696.950 1658.198, 1693.125 1652.119, 1689 1645.649 C 1676.506 1626.054, 1676.629 1626.454, 1681.281 1620.500 C 1683.629 1617.495, 1695 1600.855, 1695 1600.424 C 1695 1600.144, 1695.457 1599.372, 1696.014 1598.708 C 1696.572 1598.044, 1700.510 1592.509, 1704.764 1586.410 C 1717.806 1567.714, 1729.031 1558, 1737.595 1558 C 1738.853 1558, 1740.134 1557.592, 1740.442 1557.094 C 1740.750 1556.595, 1743.364 1555.893, 1746.251 1555.533 C 1756.377 1554.272, 1757 1553.722, 1757 1546.038 L 1757 1539.318 1714.250 1539.409 L 1671.500 1539.500 1671.198 1545.898 C 1670.825 1553.817, 1670.736 1553.735, 1680.823 1554.863 C 1690.960 1555.997, 1693 1557.473, 1693 1563.669 C 1693 1568.733, 1692.816 1569.093, 1683.250 1582.732 C 1679.263 1588.417, 1676 1593.465, 1676 1593.951 C 1676 1594.436, 1675.642 1594.983, 1675.204 1595.167 C 1674.767 1595.350, 1672.891 1597.862, 1671.036 1600.750 C 1666.866 1607.240, 1663.942 1607.788, 1661.455 1602.546 C 1660.553 1600.646, 1659.182 1598.566, 1658.408 1597.924 C 1657.634 1597.281, 1657 1596.308, 1657 1595.762 C 1657 1595.215, 1655.482 1592.683, 1653.626 1590.134 C 1650.518 1585.865, 1648.174 1582.052, 1640.773 1569.226 C 1635.852 1560.696, 1637.800 1555, 1645.638 1555 C 1652 1555, 1653.158 1553.541, 1652.804 1545.974 L 1652.500 1539.500 1602.426 1539.241 C 1574.885 1539.098, 1552.048 1539.286, 1551.676 1539.658 M 1428 1552.372 C 1419.296 1555.261, 1413.399 1560.677, 1409.147 1569.685 C 1407.897 1572.333, 1406.453 1575.281, 1405.937 1576.236 C 1405.422 1577.191, 1405 1578.885, 1405 1580 C 1405 1581.115, 1404.600 1582.809, 1404.112 1583.764 C 1398.005 1595.699, 1397.985 1655.772, 1404.078 1682 C 1409.111 1703.664, 1422.358 1729, 1428.653 1729 C 1429.394 1729, 1430 1729.382, 1430 1729.848 C 1430 1743.185, 1464.268 1732.671, 1471.515 1717.110 C 1472.952 1714.025, 1474.549 1710.719, 1475.064 1709.764 C 1475.579 1708.809, 1476 1707.115, 1476 1706 C 1476 1704.885, 1476.416 1703.191, 1476.924 1702.236 C 1480.706 1695.132, 1483.117 1633.538, 1480.025 1623.007 C 1479.461 1621.085, 1479 1618.225, 1479 1616.650 C 1479 1611.462, 1473.619 1589.732, 1471.795 1587.550 C 1471.358 1587.027, 1471 1585.836, 1471 1584.903 C 1471 1568.394, 1443.166 1547.337, 1428 1552.372 M 1189.500 1552.623 C 1166.853 1555.981, 1153.877 1587.646, 1155.334 1636 C 1156.068 1660.341, 1160.764 1691.097, 1164.285 1694.618 C 1164.678 1695.012, 1165.003 1696.046, 1165.008 1696.917 C 1165.082 1712.118, 1187.840 1734, 1203.577 1734 C 1214.391 1734, 1231 1724.524, 1231 1718.355 C 1231 1717.610, 1231.371 1717, 1231.824 1717 C 1232.278 1717, 1233.829 1714.412, 1235.272 1711.250 C 1241.219 1698.214, 1240.970 1701.390, 1240.985 1638.594 L 1241 1580.689 1238.322 1577.094 C 1224.622 1558.707, 1207.236 1549.992, 1189.500 1552.623 M 831.500 1619.067 C 828.746 1619.890, 821.468 1621.168, 810 1622.843 L 805.500 1623.500 805.241 1672.841 L 804.981 1722.181 808.241 1725.432 C 814.410 1731.584, 864.449 1731.125, 871.450 1724.851 C 871.972 1724.383, 873.135 1724, 874.034 1724 C 874.933 1724, 878.242 1722.197, 881.388 1719.994 C 911.376 1698.987, 906.912 1639.282, 874.235 1624.336 C 861.562 1618.539, 841.539 1616.071, 831.500 1619.067" stroke="none" fill="#313131" fill-rule="evenodd"/></svg>