<svg xmlns="http://www.w3.org/2000/svg" viewBox="0 0 1044 290"><defs><style>.cls-1{fill:#eae5e5;fill-rule:evenodd;}</style></defs><g id="Layer_2" data-name="Layer 2"><g id="Layer_1-2" data-name="Layer 1"><path class="cls-1" d="M302.49,8.84c-21.38,10.68-27.45,13-41.86,16.09-5.48,1.17-6.21,2.31-5.89,9.16l.26,5.5,7,.51c8,.59,13.56,2.95,16.19,6.82,1.71,2.53,1.84,8.92,2.31,119.85.5,117.13.5,117.17,2.6,120,3.41,4.57,15.84,4.26,27.9-.71,1.1-.45,4.7-1.57,8-2.5s6.9-2,8-2.43c2.29-.87,11.1-3.4,17-4.88,2.2-.55,6.83-1.79,10.29-2.75l6.29-1.75-.29-6.58-.29-6.58-7.5-.55c-9-.65-11.73-1.88-15-6.68L335,247.74l-.5-120.58c-.53-127.14-.39-123.6-5-126s-9.23-1.17-27.05,7.73m259-8c-1.7.64-9,3.94-19.82,8.9-4,1.85-7.88,3.37-8.55,3.37A3.78,3.78,0,0,0,531,14a31.44,31.44,0,0,1-6.45,2.64c-3,1-6.4,2.12-7.5,2.55a103.2,103.2,0,0,1-15,3.79l-4,.66v14l3.41-.34c7.47-.73,15.74,3.09,19.28,8.9,2.52,4.15,2.81,55.94.31,55.94-.82,0-1.5-.42-1.5-.94,0-1.25-10.61-12-15-15.14-3.1-2.25-7-4.25-13.5-6.87-10.37-4.2-34.14-4.26-44-.11-1.1.47-4.21,1.64-6.92,2.6-4.56,1.63-18.44,9-19.58,10.35-.28.33-3.48,3.18-7.12,6.33-11.79,10.19-23.2,27.45-27.27,41.28-1,3.3-2.15,7.12-2.61,8.5-2.88,8.51-3.5,14.62-3.5,34.5,0,13.87.43,22.44,1.25,25.25.69,2.34,1.75,6.16,2.35,8.5,8.25,31.78,30.74,57.71,58.4,67.33,3.3,1.15,6.68,2.36,7.5,2.68,6.8,2.7,27.53,3.21,39.19,1s25.31-12.21,31.46-23.16c4.54-8.09,5.5-5.8,3.18,7.67-3.48,20.33,6.84,23.18,36.17,10a316.78,316.78,0,0,1,30-11.09c3-.87,7.41-2.15,9.75-2.85l4.25-1.28V250.52l-6.88.39c-11.28.64-17.34-3.7-18.59-13.29-.29-2.22-.64-55.48-.78-118.37L577,4.91,574.19,2.5C571.44.13,565.42-.67,561.5.82M3,29.06c-3.83,6.19-.74,13.87,6.06,15.1a39.71,39.71,0,0,1,7.66,2,8,8,0,0,0,3,.93c2.06,0,6.64,4.81,8.26,8.67C30.24,61.1,30.26,255,28,260.37c-2.38,5.68-10.94,9.32-23.53,10l-4.5.24v14l71,.26c46.83.18,73.89-.1,79.5-.82,23-2.94,29.62-4.13,32.95-5.91a11.09,11.09,0,0,1,4.43-1c1.37,0,2.78-.45,3.12-1a2.79,2.79,0,0,1,2.17-1c3.06,0,19.66-9.1,25.69-14.09,11.31-9.35,20.64-25.48,20.64-35.69a30.84,30.84,0,0,1,1-7.08c5.68-19.82-13.42-49.65-39.46-61.6-2.2-1-4.78-2.22-5.74-2.69a9.56,9.56,0,0,0-3.55-.85,4.56,4.56,0,0,1-2.76-.94c-1-1-7-2.66-14.7-4.07-7.14-1.31-9.44-4.11-4.5-5.48,3.62-1,18.33-8.59,21.1-10.9,1.4-1.16,3.94-3.2,5.66-4.53,16.82-13,21.14-44.42,8.68-63.08-6.89-10.34-28.86-25.91-36.7-26a54.94,54.94,0,0,1-8.49-2.5,44.07,44.07,0,0,0-11.18-2.48,23.54,23.54,0,0,1-7-1.09c-3.15-1.22-33.18-3.34-46.32-3.28-4.67,0-26.28.21-48,.41S7,29.17,5.83,28.75s-2.43-.3-2.81.31M87.75,44.75c-1.4.57-1.87,98.82-.48,101s24.4-2.82,39.73-8.5c25.15-9.32,36.42-29.66,31.36-56.6C153.43,54.37,137.93,44.18,103,44.23c-7.7,0-14.56.24-15.25.52M703,77.58C692.36,80,686.41,81.9,680.12,85a46.45,46.45,0,0,1-7,3.06c-1.81,0-15.38,10.61-21.31,16.66-9.44,9.65-11.1,12.06-19.08,27.84-11.18,22.08-13.38,61.5-4.84,86.77A84.5,84.5,0,0,1,630.5,228c0,6.08,20.78,32.5,32.6,41.42,22,16.61,61.33,24.62,81.9,16.66,1.1-.42,4.7-1.56,8-2.52,12.51-3.64,31.9-15.82,39-24.48,1.11-1.36,4-4.8,6.52-7.65a57.49,57.49,0,0,0,6.47-9c1.09-2.12,2.93-5.43,4.11-7.35,2.44-4,7.42-17.91,7.42-20.72a4.6,4.6,0,0,1,1-2.84c4.31-4.31,4.39-51.66.12-62.71-.48-1.23-1.69-4.93-2.7-8.23-3.29-10.72-10.65-23.24-19-32.34a98.53,98.53,0,0,0-30.69-22.61c-14.46-6.9-22.39-8.62-41.66-9.07-9.66-.22-16.51.12-20.5,1m130.18,1.17c-.38.37-.68,3.47-.68,6.9,0,7,0,7,8.6,8.44,9.46,1.57,22,10.06,24,16.22.31,1,1,1.78,1.5,1.78a1,1,0,0,1,.93,1.12c0,.62,1.8,3.82,4,7.12a57.24,57.24,0,0,1,4,6.49,37.86,37.86,0,0,0,3.5,5.27,32.24,32.24,0,0,1,3.5,5.39c0,.34,7.43,12.49,16.5,27,16.44,26.29,17.84,29.25,15,31.61a4,4,0,0,0-1.5,2.19,4.79,4.79,0,0,1-1.25,2.35,37.77,37.77,0,0,0-4.25,5.71c-7.82,12.87-29.35,42.58-34.62,47.75-11.24,11-13.31,12-36.67,16.53l-3.3.65.3,6.54.29,6.54,43,0,43,0,.29-6.48c.34-7.45.61-7.24-9.79-7.64-16.58-.63-17.11-8.33-2-29.59,3.12-4.4,8.06-11.6,11-16,10.11-15.2,8.48-15.35,19.17,1.76,4.56,7.28,8.53,13.46,8.84,13.74a29.41,29.41,0,0,1,2.53,4.25c1.08,2.06,2.31,3.75,2.74,3.75a.87.87,0,0,1,.77.94,19,19,0,0,0,2.25,4.74c6.24,10.54,4.86,16.29-3.93,16.33-6.73,0-7.32.65-7.32,7.61,0,3.51.34,6.4.75,6.42s23,.07,50.25.12l49.5.08V271.66l-4-.83c-12.65-2.63-17-5.2-23.69-14.17a77.88,77.88,0,0,1-4.94-7.07c-.2-.55-2.51-4.23-5.12-8.18s-4.75-7.62-4.75-8.16a1.53,1.53,0,0,0-.8-1.33c-.65-.27-17.88-27-21.7-33.67-.55-1-4.38-7-8.5-13.51-12.49-19.6-12.37-19.2-7.72-25.15,2.35-3,13.72-19.65,13.72-20.08a4.5,4.5,0,0,1,1-1.71c.56-.67,4.5-6.2,8.75-12.3,13-18.7,24.27-28.41,32.83-28.41,1.26,0,2.54-.41,2.85-.91s2.92-1.2,5.81-1.56c10.13-1.26,10.75-1.81,10.75-9.49V78.41l-42.75.09L953,78.59l-.3,6.4c-.38,7.92-.46,7.83,9.62,9s12.18,2.61,12.18,8.81c0,5.06-.18,5.42-9.75,19.06-4,5.69-7.25,10.73-7.25,11.22a1.45,1.45,0,0,1-.8,1.22c-.43.18-2.31,2.69-4.16,5.58-4.17,6.49-7.1,7-9.59,1.79a17.17,17.17,0,0,0-3-4.62,3.71,3.71,0,0,1-1.41-2.16c0-.55-1.52-3.08-3.37-5.63-3.11-4.27-5.46-8.08-12.86-20.91-4.92-8.53-3-14.22,4.87-14.22,6.36,0,7.52-1.46,7.16-9l-.3-6.47-50.07-.26c-27.54-.14-50.38,0-50.75.42M709.5,91.46c-8.7,2.89-14.6,8.31-18.85,17.31-1.25,2.65-2.7,5.6-3.21,6.55a9.36,9.36,0,0,0-.94,3.77,9.78,9.78,0,0,1-.89,3.76c-6.1,11.94-6.13,72,0,98.24,5,21.66,18.28,47,24.57,47,.74,0,1.35.38,1.35.85,0,13.33,34.27,2.82,41.52-12.74,1.43-3.09,3-6.39,3.54-7.35a9.32,9.32,0,0,0,.94-3.76,9.68,9.68,0,0,1,.92-3.77c3.79-7.1,6.2-68.69,3.11-79.22a27.41,27.41,0,0,1-1-6.36c0-5.19-5.38-26.92-7.2-29.1a4.81,4.81,0,0,1-.8-2.65c0-16.51-27.83-37.56-43-32.53M471,91.71c-22.65,3.36-35.62,35-34.17,83.38.74,24.34,5.43,55.1,9,58.62a3.86,3.86,0,0,1,.72,2.3c.07,15.2,22.83,37.08,38.57,37.08,10.81,0,27.42-9.48,27.42-15.65,0-.74.37-1.35.82-1.35s2-2.59,3.45-5.75c6-13,5.7-9.86,5.71-72.66l0-57.9-2.68-3.6C506.12,97.8,488.74,89.08,471,91.71M113,158.16c-2.75.82-10,2.1-21.5,3.77l-4.5.66-.26,49.34-.26,49.34,3.26,3.25c6.17,6.15,56.21,5.69,63.21-.58a4.47,4.47,0,0,1,2.58-.85c.9,0,4.21-1.8,7.36-4,30-21,25.52-80.71-7.16-95.66-12.67-5.79-32.69-8.26-42.73-5.26"/></g></g></svg>