<svg width="135" height="42" viewBox="0 0 135 42" fill="none" xmlns="http://www.w3.org/2000/svg">
<g clip-path="url(#clip0_2399_8146)">
<path d="M130 0.621094H5C2.23858 0.621094 0 2.8859 0 5.67969V36.0312C0 38.825 2.23858 41.0898 5 41.0898H130C132.761 41.0898 135 38.825 135 36.0312V5.67969C135 2.8859 132.761 0.621094 130 0.621094Z" fill="black"/>
<path d="M130 1.43046C131.114 1.43177 132.181 1.8799 132.968 2.67655C133.756 3.4732 134.199 4.5533 134.2 5.67989V36.0314C134.199 37.158 133.756 38.2381 132.968 39.0348C132.181 39.8314 131.114 40.2796 130 40.2809H5C3.88645 40.2796 2.81888 39.8314 2.0315 39.0348C1.24412 38.2382 0.801231 37.158 0.8 36.0314V5.67989C0.801212 4.55328 1.24409 3.47317 2.03148 2.67652C2.81886 1.87987 3.88644 1.43174 5 1.43046H130ZM130 0.621292H5C3.67511 0.625216 2.40559 1.15943 1.46875 2.10725C0.531908 3.05508 0.0038781 4.33947 0 5.67989L0 36.0314C0.0038781 37.3719 0.531908 38.6563 1.46875 39.6041C2.40559 40.5519 3.67511 41.0861 5 41.09H130C131.325 41.0861 132.594 40.5519 133.531 39.6041C134.468 38.6563 134.996 37.3719 135 36.0314V5.67989C134.996 4.33947 134.468 3.05508 133.531 2.10725C132.594 1.15943 131.325 0.625216 130 0.621292Z" fill="#A6A6A6"/>
<path d="M47.4183 10.9844C47.4365 11.3557 47.3798 11.7268 47.2516 12.0751C47.1235 12.4235 46.9267 12.7419 46.6731 13.0108C46.3889 13.309 46.0456 13.5432 45.6658 13.6979C45.286 13.8527 44.8782 13.9246 44.469 13.9089C44.0572 13.9126 43.6488 13.833 43.2679 13.6748C42.8869 13.5166 42.5411 13.2829 42.2507 12.9875C41.9603 12.6922 41.7312 12.341 41.5768 11.9548C41.4225 11.5685 41.346 11.155 41.3519 10.7384C41.346 10.3218 41.4225 9.90821 41.5769 9.52196C41.7313 9.1357 41.9604 8.78455 42.2508 8.48914C42.5412 8.19373 42.887 7.96001 43.2679 7.80171C43.6488 7.64341 44.0572 7.56373 44.469 7.56735C44.8924 7.56605 45.3115 7.65266 45.7005 7.8218C46.0617 7.96995 46.3833 8.20235 46.639 8.50005L46.1116 9.03404C45.9106 8.79472 45.658 8.60531 45.3732 8.48043C45.0884 8.35555 44.779 8.29854 44.469 8.31379C44.1569 8.31216 43.8477 8.37427 43.5599 8.49639C43.2721 8.61852 43.0116 8.79815 42.7941 9.02453C42.5765 9.25092 42.4064 9.51939 42.2938 9.81388C42.1812 10.1084 42.1286 10.4228 42.139 10.7384C42.1315 11.2111 42.263 11.6753 42.5167 12.0723C42.7704 12.4693 43.1349 12.7811 43.564 12.9682C43.9931 13.1553 44.4674 13.2093 44.9269 13.1233C45.3864 13.0373 45.8102 12.8152 46.1448 12.4852C46.4527 12.1496 46.6311 11.7132 46.6477 11.2556H44.469V10.5264H47.3763C47.4038 10.6775 47.4178 10.8308 47.4183 10.9844Z" fill="white" stroke="white" stroke-width="0.2" stroke-miterlimit="10"/>
<path d="M52.0283 8.44917H49.2959V10.3738H51.7598V11.103H49.2959V13.0276H52.0283V13.7735H48.5254V7.70323H52.0283V8.44917Z" fill="white" stroke="white" stroke-width="0.2" stroke-miterlimit="10"/>
<path d="M55.2793 13.7735H54.5078V8.44917H52.832V7.70323H56.9551V8.44917H55.2793V13.7735Z" fill="white" stroke="white" stroke-width="0.2" stroke-miterlimit="10"/>
<path d="M59.9375 13.7735V7.70323H60.708V13.7735H59.9375Z" fill="white" stroke="white" stroke-width="0.2" stroke-miterlimit="10"/>
<path d="M64.1288 13.7735H63.3573V8.44917H61.6816V7.70323H65.8046V8.44917H64.1288V13.7735Z" fill="white" stroke="white" stroke-width="0.2" stroke-miterlimit="10"/>
<path d="M73.6102 12.9891C73.0261 13.5781 72.2351 13.9089 71.4105 13.9089C70.5858 13.9089 69.7948 13.5781 69.2108 12.9891C68.9218 12.693 68.6947 12.3412 68.5429 11.9545C68.3911 11.5679 68.3176 11.1543 68.327 10.7384C68.3176 10.3225 68.3911 9.90887 68.5429 9.52222C68.6947 9.13558 68.9218 8.78377 69.2108 8.48771C69.4994 8.1956 69.8422 7.96394 70.2194 7.80602C70.5967 7.64809 71.001 7.56699 71.4093 7.56735C71.8176 7.56772 72.2218 7.64955 72.5988 7.80815C72.9758 7.96676 73.3181 8.19902 73.6063 8.49166C73.8954 8.78694 74.1229 9.13796 74.2754 9.5239C74.4279 9.90984 74.5022 10.3228 74.494 10.7384C74.503 11.1543 74.4295 11.5678 74.2777 11.9544C74.1258 12.341 73.8989 12.6928 73.6102 12.9891ZM69.7801 12.4808C70.2126 12.9176 70.7988 13.163 71.41 13.163C72.0211 13.163 72.6073 12.9176 73.0399 12.4808C73.2617 12.251 73.4351 11.9782 73.5498 11.6787C73.6644 11.3792 73.7178 11.0593 73.7069 10.7384C73.7178 10.4174 73.6644 10.0975 73.5498 9.79807C73.4351 9.49859 73.2617 9.22574 73.0399 8.996C72.6073 8.55915 72.0211 8.31379 71.41 8.31379C70.7988 8.31379 70.2126 8.55915 69.7801 8.996C69.5586 9.22592 69.3854 9.49883 69.2709 9.79828C69.1565 10.0977 69.1031 10.4175 69.1141 10.7384C69.1031 11.0592 69.1565 11.379 69.2709 11.6785C69.3854 11.9779 69.5586 12.2508 69.7801 12.4808Z" fill="white" stroke="white" stroke-width="0.2" stroke-miterlimit="10"/>
<path d="M75.5742 13.7735V7.70323H76.5127L79.4287 12.4254H79.4619L79.4287 11.2556V7.70323H80.2002V13.7735H79.3955L76.3447 8.8226H76.3115L76.3447 9.99245V13.7735H75.5742Z" fill="white" stroke="white" stroke-width="0.2" stroke-miterlimit="10"/>
<path d="M68.1354 22.6277C67.2949 22.6309 66.4741 22.886 65.7768 23.3608C65.0795 23.8356 64.5369 24.5088 64.2175 25.2953C63.898 26.0819 63.8161 26.9466 63.982 27.7802C64.148 28.6138 64.5543 29.379 65.1498 29.9792C65.7452 30.5793 66.5031 30.9875 67.3277 31.1522C68.1523 31.3169 69.0066 31.2308 69.7829 30.9046C70.5591 30.5784 71.2224 30.0269 71.689 29.3196C72.1557 28.6123 72.4047 27.781 72.4047 26.9306C72.4129 26.3619 72.308 25.7972 72.0962 25.2703C71.8844 24.7434 71.5699 24.265 71.1716 23.8635C70.7733 23.4621 70.2992 23.1458 69.7776 22.9335C69.256 22.7212 68.6975 22.6172 68.1354 22.6277ZM68.1354 29.5386C67.6178 29.5759 67.101 29.4547 66.6524 29.1908C66.2038 28.9268 65.8442 28.5323 65.6203 28.0587C65.3964 27.5851 65.3186 27.0542 65.3971 26.5352C65.4756 26.0162 65.7068 25.5332 66.0604 25.149C66.4141 24.7647 66.8739 24.4971 67.3799 24.381C67.886 24.2649 68.4149 24.3056 68.8978 24.4978C69.3807 24.6901 69.7952 25.0249 70.0874 25.4589C70.3795 25.8928 70.5358 26.4056 70.5358 26.9306C70.5515 27.2623 70.5015 27.5938 70.3886 27.9057C70.2758 28.2175 70.1024 28.5033 69.8787 28.7463C69.6551 28.9893 69.3856 29.1846 69.0862 29.3207C68.7868 29.4567 68.4635 29.5308 68.1354 29.5386ZM58.822 22.6277C57.9815 22.6309 57.1607 22.886 56.4634 23.3608C55.7661 23.8355 55.2234 24.5087 54.904 25.2953C54.5845 26.0818 54.5026 26.9465 54.6685 27.7801C54.8344 28.6138 55.2408 29.379 55.8362 29.9791C56.4317 30.5793 57.1896 30.9875 58.0142 31.1522C58.8388 31.3169 59.6931 31.2308 60.4694 30.9046C61.2456 30.5784 61.9089 30.0269 62.3755 29.3196C62.8422 28.6123 63.0912 27.781 63.0912 26.9306C63.0994 26.3619 62.9945 25.7973 62.7827 25.2704C62.5709 24.7435 62.2565 24.265 61.8582 23.8636C61.4598 23.4621 60.9858 23.1458 60.4642 22.9335C59.9426 22.7212 59.3841 22.6172 58.822 22.6277ZM58.822 29.5386C58.3044 29.5759 57.7876 29.4547 57.339 29.1908C56.8904 28.9268 56.5308 28.5323 56.3069 28.0587C56.083 27.5851 56.0052 27.0542 56.0837 26.5352C56.1622 26.0162 56.3934 25.5332 56.747 25.149C57.1007 24.7647 57.5605 24.4971 58.0665 24.381C58.5726 24.2649 59.1015 24.3056 59.5844 24.4978C60.0673 24.6901 60.4818 25.0249 60.774 25.4589C61.0661 25.8928 61.2224 26.4056 61.2224 26.9306C61.2381 27.2623 61.1881 27.5938 61.0752 27.9057C60.9624 28.2175 60.789 28.5033 60.5654 28.7463C60.3417 28.9894 60.0722 29.1846 59.7728 29.3207C59.4734 29.4567 59.1501 29.5308 58.822 29.5386ZM47.7432 23.948V25.7734H52.0609C51.9986 26.6297 51.6523 27.4395 51.0781 28.0717C50.6454 28.5179 50.1251 28.8673 49.5507 29.0975C48.9762 29.3277 48.3605 29.4335 47.7432 29.4081C46.4812 29.3909 45.2766 28.8715 44.3902 27.9625C43.5038 27.0535 43.0068 25.8279 43.0068 24.551C43.0068 23.2741 43.5038 22.0485 44.3902 21.1395C45.2766 20.2305 46.4812 19.7111 47.7432 19.6938C48.9554 19.6778 50.1249 20.1464 50.9976 20.9977L52.2703 19.7101C51.6748 19.1137 50.9677 18.6436 50.1903 18.3273C49.4129 18.011 48.581 17.855 47.7432 17.8683C46.8677 17.8554 45.9984 18.0187 45.1858 18.3488C44.3732 18.6788 43.6336 19.169 43.01 19.7908C42.3864 20.4126 41.8911 21.1537 41.5531 21.9709C41.2151 22.7881 41.041 23.6651 41.041 24.551C41.041 25.4368 41.2151 26.3139 41.5531 27.1311C41.8911 27.9483 42.3864 28.6893 43.01 29.3111C43.6336 29.933 44.3732 30.4232 45.1858 30.7532C45.9984 31.0833 46.8677 31.2466 47.7432 31.2337C48.5986 31.2696 49.4519 31.121 50.2462 30.7979C51.0406 30.4747 51.758 29.9843 52.3508 29.3593C53.4032 28.1971 53.9641 26.6643 53.9136 25.0889C53.9177 24.7063 53.8853 24.3243 53.8168 23.948H47.7432ZM93.0515 25.3659C92.7959 24.5865 92.3093 23.9056 91.6579 23.4157C91.0065 22.9258 90.2218 22.6507 89.4105 22.6277C88.864 22.6311 88.3239 22.7466 87.8228 22.9672C87.3217 23.1878 86.8701 23.5089 86.4951 23.9111C86.1201 24.3133 85.8297 24.7883 85.6413 25.3073C85.4529 25.8263 85.3705 26.3785 85.3991 26.9306C85.3868 27.4964 85.4873 28.0588 85.6946 28.5844C85.902 29.1099 86.2119 29.5878 86.6059 29.9894C86.9999 30.3911 87.4698 30.7083 87.9877 30.9221C88.5056 31.1358 89.0607 31.2418 89.62 31.2337C90.3206 31.2376 91.0113 31.0654 91.6299 30.7326C92.2485 30.3997 92.7757 29.9166 93.1642 29.3267L91.7143 28.3488C91.4971 28.7137 91.1898 29.0153 90.8227 29.2239C90.4555 29.4325 90.0411 29.5409 89.62 29.5386C89.1867 29.5553 88.7584 29.44 88.3907 29.2075C88.023 28.975 87.7328 28.636 87.5578 28.2346L93.2449 25.855L93.0515 25.3659ZM87.2518 26.8003C87.2317 26.4872 87.2737 26.1731 87.3751 25.8765C87.4765 25.5799 87.6353 25.3067 87.8423 25.073C88.0493 24.8392 88.3003 24.6496 88.5807 24.5152C88.861 24.3808 89.165 24.3044 89.4749 24.2903C89.7976 24.2688 90.1194 24.3439 90.4001 24.5062C90.6809 24.6685 90.9082 24.9109 91.0538 25.203L87.2518 26.8003ZM82.628 30.9729H84.4968V18.3248H82.628V30.9729ZM79.567 23.5893H79.5026C79.2185 23.277 78.8717 23.0297 78.4855 22.8639C78.0993 22.698 77.6826 22.6175 77.2632 22.6277C76.1665 22.6749 75.1302 23.1489 74.3707 23.9507C73.6112 24.7525 73.1872 25.8201 73.1872 26.9307C73.1872 28.0412 73.6112 29.1089 74.3707 29.9107C75.1302 30.7125 76.1665 31.1865 77.2632 31.2337C77.6843 31.245 78.1027 31.1634 78.4895 30.9945C78.8762 30.8256 79.2219 30.5735 79.5026 30.2558H79.567V30.8751C79.567 32.5214 78.6971 33.4015 77.2954 33.4015C76.8282 33.3902 76.375 33.2384 75.9934 32.9656C75.6119 32.6927 75.3192 32.3111 75.1528 31.8694L73.5256 32.554C73.8323 33.3094 74.3549 33.955 75.0265 34.408C75.6982 34.861 76.4882 35.1008 77.2954 35.0966C79.4865 35.0966 81.3392 33.7927 81.3392 30.6143V22.8884H79.567V23.5893ZM77.4244 29.5386C76.7784 29.4831 76.1766 29.1844 75.738 28.7014C75.2994 28.2185 75.056 27.5865 75.056 26.9307C75.056 26.2748 75.2994 25.6429 75.738 25.16C76.1766 24.677 76.7784 24.3783 77.4244 24.3228C77.7457 24.3387 78.0606 24.4199 78.3503 24.5615C78.64 24.7031 78.8986 24.9023 79.1105 25.1472C79.3225 25.3921 79.4836 25.6776 79.5841 25.9868C79.6847 26.296 79.7227 26.6226 79.6959 26.9469C79.721 27.2693 79.6816 27.5935 79.58 27.9001C79.4785 28.2067 79.3168 28.4894 79.1048 28.7314C78.8927 28.9733 78.6346 29.1695 78.3459 29.3082C78.0571 29.4469 77.7437 29.5252 77.4244 29.5386ZM101.805 18.325H97.3342V30.9729H99.1999V26.181H101.805C102.333 26.2102 102.861 26.1303 103.357 25.9462C103.854 25.762 104.308 25.4774 104.691 25.1098C105.075 24.7421 105.381 24.2992 105.59 23.808C105.799 23.3168 105.907 22.7877 105.907 22.253C105.907 21.7182 105.799 21.1891 105.59 20.6979C105.381 20.2067 105.075 19.7638 104.691 19.3962C104.308 19.0285 103.854 18.7439 103.357 18.5598C102.861 18.3756 102.333 18.2957 101.805 18.325ZM101.854 24.4208H99.1999V20.0853H101.854C102.139 20.0793 102.422 20.1309 102.687 20.2372C102.952 20.3434 103.194 20.5022 103.398 20.704C103.601 20.9059 103.763 21.1469 103.874 21.4129C103.984 21.6789 104.041 21.9645 104.041 22.253C104.041 22.5415 103.984 22.8271 103.874 23.0931C103.763 23.3591 103.601 23.6001 103.398 23.802C103.194 24.0039 102.952 24.1626 102.687 24.2688C102.422 24.3751 102.139 24.4268 101.854 24.4208ZM113.385 22.6044C112.704 22.5642 112.026 22.726 111.435 23.07C110.844 23.4139 110.364 23.9251 110.056 24.5408L111.713 25.2405C111.877 24.9349 112.126 24.6844 112.428 24.5197C112.731 24.3549 113.075 24.2831 113.417 24.3129C113.891 24.2662 114.363 24.4112 114.731 24.7162C115.099 25.0212 115.332 25.4613 115.38 25.9401V26.0703C114.78 25.7482 114.112 25.5806 113.433 25.5821C111.648 25.5821 109.831 26.5747 109.831 28.4297C109.848 28.8206 109.943 29.2041 110.11 29.5572C110.276 29.9104 110.511 30.2261 110.801 30.4856C111.09 30.7451 111.428 30.9432 111.795 31.068C112.162 31.1928 112.549 31.2418 112.935 31.2121C113.405 31.2401 113.873 31.1402 114.292 30.9227C114.711 30.7052 115.064 30.3781 115.315 29.9755H115.38V30.9518H117.181V26.1029C117.181 23.8573 115.524 22.6044 113.385 22.6044ZM113.16 29.5361C112.549 29.5361 111.696 29.227 111.696 28.4622C111.696 27.486 112.758 27.1116 113.675 27.1116C114.27 27.0956 114.859 27.2417 115.38 27.5347C115.311 28.0833 115.049 28.5883 114.64 28.9562C114.232 29.3241 113.707 29.5301 113.16 29.5361ZM123.743 22.881L121.604 28.3646H121.539L119.32 22.881H117.31L120.639 30.545L118.741 34.8082H120.687L125.818 22.881H123.743ZM106.936 30.9729H108.801V18.325H106.936V30.9729Z" fill="white"/>
<path d="M10.4352 8.24754C10.1073 8.64421 9.9417 9.15272 9.97238 9.6689V32.0442C9.94161 32.5604 10.1072 33.0689 10.4352 33.4655L10.5092 33.5385L22.8982 21.0044V20.7087L10.5092 8.17409L10.4352 8.24754Z" fill="url(#paint0_linear_2399_8146)"/>
<path d="M27.0278 25.1842L22.8984 21.0044V20.7087L27.0288 16.5299L27.1219 16.5836L32.0147 19.3963C33.4123 20.1996 33.4123 21.514 32.0147 22.3178L27.1219 25.1305L27.0278 25.1842Z" fill="url(#paint1_linear_2399_8146)"/>
<path d="M27.122 25.13L22.8985 20.8566L10.4355 33.4655C10.7203 33.7196 11.084 33.8649 11.4635 33.8763C11.843 33.8876 12.2145 33.7643 12.5136 33.5276L27.122 25.13Z" fill="url(#paint2_linear_2399_8146)"/>
<path d="M27.122 16.5831L12.5136 8.18542C12.2145 7.94877 11.843 7.82543 11.4635 7.83678C11.084 7.84812 10.7203 7.99343 10.4355 8.24753L22.8985 20.8566L27.122 16.5831Z" fill="url(#paint3_linear_2399_8146)"/>
<path opacity="0.2" d="M27.0289 25.0359L12.5136 33.3798C12.2261 33.6013 11.8751 33.7222 11.5136 33.7241C11.1522 33.7261 10.8 33.609 10.51 33.3907L10.4355 33.466L10.5095 33.539L10.51 33.5385C10.7999 33.757 11.1522 33.8741 11.5136 33.8721C11.8751 33.8702 12.2261 33.7493 12.5136 33.5276L27.122 25.13L27.0289 25.0359Z" fill="black"/>
<path opacity="0.12" d="M10.4352 33.3182C10.1073 32.9215 9.94171 32.413 9.97236 31.8969V32.0447C9.94169 32.5609 10.1073 33.0694 10.4352 33.466L10.5097 33.3907L10.4352 33.3182Z" fill="black"/>
<path opacity="0.12" d="M32.0152 22.1695L27.0293 25.0359L27.1224 25.13L32.0152 22.3173C32.303 22.1909 32.5521 21.9888 32.7364 21.732C32.9208 21.4751 33.0338 21.173 33.0635 20.857C33.0016 21.1432 32.8747 21.4108 32.6927 21.6386C32.5107 21.8665 32.2788 22.0482 32.0152 22.1695Z" fill="black"/>
<path opacity="0.25" d="M12.5136 8.33373L32.0148 19.5436C32.2784 19.6648 32.5105 19.8467 32.6925 20.0746C32.8744 20.3025 33.0013 20.5703 33.0631 20.8566C33.0335 20.5405 32.9207 20.2381 32.7363 19.9812C32.5519 19.7242 32.3027 19.5221 32.0148 19.3958L12.5136 8.18592C11.116 7.38251 9.97266 8.04984 9.97266 9.6694V9.81721C9.97266 8.19775 11.116 7.53042 12.5136 8.33373Z" fill="white"/>
</g>
<defs>
<linearGradient id="paint0_linear_2399_8146" x1="21.7995" y1="9.43298" x2="4.8216" y2="26.2143" gradientUnits="userSpaceOnUse">
<stop stop-color="#00A0FF"/>
<stop offset="0.00657" stop-color="#00A1FF"/>
<stop offset="0.2601" stop-color="#00BEFF"/>
<stop offset="0.5122" stop-color="#00D2FF"/>
<stop offset="0.7604" stop-color="#00DFFF"/>
<stop offset="1" stop-color="#00E3FF"/>
</linearGradient>
<linearGradient id="paint1_linear_2399_8146" x1="33.8344" y1="20.857" x2="9.63752" y2="20.857" gradientUnits="userSpaceOnUse">
<stop stop-color="#FFE000"/>
<stop offset="0.4087" stop-color="#FFBD00"/>
<stop offset="0.7754" stop-color="#FFA500"/>
<stop offset="1" stop-color="#FF9C00"/>
</linearGradient>
<linearGradient id="paint2_linear_2399_8146" x1="24.8271" y1="23.1786" x2="1.80368" y2="45.9353" gradientUnits="userSpaceOnUse">
<stop stop-color="#FF3A44"/>
<stop offset="1" stop-color="#C31162"/>
</linearGradient>
<linearGradient id="paint3_linear_2399_8146" x1="7.29748" y1="0.799444" x2="17.5784" y2="10.9613" gradientUnits="userSpaceOnUse">
<stop stop-color="#32A071"/>
<stop offset="0.0685" stop-color="#2DA771"/>
<stop offset="0.4762" stop-color="#15CF74"/>
<stop offset="0.8009" stop-color="#06E775"/>
<stop offset="1" stop-color="#00F076"/>
</linearGradient>
<clipPath id="clip0_2399_8146">
<rect width="135" height="40.469" fill="white" transform="translate(0 0.621094)"/>
</clipPath>
</defs>
</svg>
