<svg width="135" height="42" viewBox="0 0 135 42" fill="none" xmlns="http://www.w3.org/2000/svg">
<path d="M124.249 0.621088H10.7566C10.3429 0.621088 9.9342 0.621088 9.5216 0.623111C9.17621 0.625135 8.83358 0.631013 8.48488 0.63596C7.72733 0.643955 6.97157 0.703721 6.22416 0.814741C5.4778 0.928178 4.75482 1.14204 4.07967 1.44909C3.40534 1.75874 2.7892 2.16109 2.25357 2.64156C1.71514 3.12068 1.26632 3.67447 0.924356 4.28165C0.581453 4.88762 0.343683 5.53697 0.219258 6.20727C0.0936495 6.87673 0.0260586 7.55391 0.0170916 8.23273C0.00662229 8.54293 0.00551669 8.85415 0 9.16438V32.5495C0.00551669 32.8637 0.00662229 33.168 0.0170916 33.4822C0.0260614 34.161 0.0936522 34.8382 0.219258 35.5076C0.343339 36.1783 0.581124 36.828 0.924356 37.4342C1.26616 38.0394 1.71505 38.591 2.25357 39.0674C2.78717 39.55 3.40371 39.9526 4.07967 40.2599C4.75481 40.5678 5.47772 40.7829 6.22416 40.8981C6.9717 41.0082 7.72738 41.068 8.48488 41.077C8.83358 41.0839 9.17621 41.0878 9.5216 41.0878C9.93419 41.0898 10.343 41.0898 10.7566 41.0898H124.249C124.655 41.0898 125.067 41.0898 125.472 41.0878C125.816 41.0878 126.169 41.0839 126.512 41.077C127.268 41.0685 128.023 41.0087 128.769 40.8981C129.518 40.7821 130.243 40.567 130.921 40.2599C131.597 39.9525 132.213 39.5498 132.746 39.0674C133.283 38.5891 133.733 38.0379 134.079 37.4342C134.42 36.8276 134.655 36.1779 134.777 35.5076C134.903 34.8381 134.973 34.1611 134.987 33.4822C134.991 33.168 134.991 32.8637 134.991 32.5495C135 32.182 135 31.8164 135 31.4429V10.269C135 9.89847 135 9.53093 134.991 9.16438C134.991 8.85415 134.991 8.54293 134.987 8.23269C134.973 7.55381 134.903 6.87678 134.777 6.20723C134.655 5.53731 134.419 4.88801 134.079 4.28161C133.383 3.06459 132.278 2.07394 130.921 1.449C130.243 1.1427 129.518 0.928894 128.769 0.81465C128.023 0.703141 127.269 0.643354 126.512 0.635819C126.169 0.630881 125.816 0.624953 125.472 0.62298C125.067 0.620956 124.655 0.620956 124.249 0.620956V0.621088Z" fill="#A6A6A6"/>
<path d="M9.43001 40.2076C9.08569 40.2076 8.74969 40.2037 8.40807 40.1968C7.70037 40.1885 6.99433 40.1334 6.29574 40.0317C5.64433 39.9313 5.0133 39.7444 4.42345 39.4773C3.839 39.2124 3.30594 38.8651 2.84469 38.4486C2.37676 38.037 1.98718 37.5596 1.6914 37.0354C1.39236 36.5078 1.18541 35.9422 1.07775 35.3585C0.961494 34.7312 0.898592 34.0969 0.889592 33.4611C0.882427 33.2477 0.873047 32.5371 0.873047 32.5371V9.16093C0.873047 9.16093 0.883037 8.46127 0.889648 8.25571C0.898266 7.62091 0.960802 6.98762 1.07671 6.36131C1.18457 5.77593 1.39168 5.20874 1.69088 4.67938C1.98557 4.15552 2.37299 3.6778 2.8381 3.26475C3.30269 2.84778 3.83745 2.49864 4.42289 2.23008C5.01139 1.96383 5.64123 1.77828 6.29132 1.67965C6.99221 1.57701 7.7007 1.52152 8.41085 1.51364L9.43057 1.50128H125.57L126.602 1.51413C127.306 1.52162 128.008 1.57662 128.702 1.67866C129.359 1.77853 129.995 1.96537 130.59 2.23305C131.763 2.77428 132.718 3.63055 133.32 4.68185C133.614 5.20756 133.818 5.77012 133.924 6.35044C134.042 6.98189 134.107 7.62016 134.121 8.26017C134.124 8.54675 134.124 8.85457 134.124 9.16093C134.133 9.5404 134.133 9.90159 134.133 10.2657V31.4441C134.133 31.8117 134.133 32.1705 134.124 32.5321C134.124 32.8612 134.124 33.1627 134.12 33.4729C134.107 34.1015 134.042 34.7284 133.927 35.3485C133.821 35.9365 133.615 36.5065 133.316 37.0385C133.018 37.557 132.631 38.0302 132.169 38.4407C131.707 38.8594 131.173 39.2088 130.587 39.4754C129.994 39.7446 129.358 39.9321 128.702 40.0317C128.004 40.1339 127.297 40.1891 126.59 40.1968C126.259 40.2037 125.912 40.2076 125.576 40.2076L124.35 40.2096L9.43001 40.2076Z" fill="black"/>
<path d="M32.7973 21.1597C32.8081 20.3152 33.0298 19.4873 33.4418 18.7528C33.8538 18.0183 34.4428 17.4012 35.1539 16.959C34.7021 16.3062 34.1062 15.7691 33.4134 15.3901C32.7205 15.0112 31.9499 14.8009 31.1627 14.776C29.4835 14.5977 27.8555 15.7926 26.9998 15.7926C26.1275 15.7926 24.81 14.7937 23.3913 14.8232C22.4736 14.8532 21.5793 15.1232 20.7954 15.6069C20.0115 16.0905 19.3649 16.7714 18.9184 17.5831C16.9844 20.9707 18.427 25.9494 20.2796 28.6878C21.2065 30.0286 22.2898 31.5264 23.7072 31.4733C25.0943 31.4151 25.6123 30.5785 27.2866 30.5785C28.9454 30.5785 29.4314 31.4733 30.8776 31.4396C32.366 31.4151 33.3038 30.0927 34.1981 28.7391C34.8641 27.7837 35.3766 26.7278 35.7166 25.6104C34.8518 25.2404 34.1139 24.621 33.5948 23.8296C33.0757 23.0381 32.7983 22.1095 32.7973 21.1597V21.1597Z" fill="white"/>
<path d="M30.0649 12.9751C30.8764 11.9895 31.2763 10.7226 31.1794 9.44356C29.9396 9.5753 28.7943 10.1748 27.9719 11.1226C27.5697 11.5856 27.2617 12.1243 27.0655 12.7078C26.8692 13.2914 26.7886 13.9083 26.8281 14.5234C27.4483 14.5299 28.0618 14.3939 28.6225 14.1257C29.1831 13.8575 29.6763 13.4641 30.0649 12.9751Z" fill="white"/>
<path d="M50.3301 28.0788H45.5967L44.46 31.4746H42.4551L46.9385 18.911H49.0215L53.5049 31.4746H51.4658L50.3301 28.0788ZM46.0869 26.5118H49.8389L47.9893 21.0007H47.9375L46.0869 26.5118Z" fill="white"/>
<path d="M63.1866 26.8952C63.1866 29.7416 61.6807 31.5704 59.4082 31.5704C58.8326 31.6009 58.2601 31.4667 57.7563 31.1833C57.2525 30.8999 56.8378 30.4786 56.5596 29.9678H56.5166V34.5048H54.6582V22.3148H56.4571V23.8383H56.4912C56.7822 23.3299 57.2039 22.9109 57.7116 22.6257C58.2192 22.3406 58.7937 22.2 59.3741 22.2189C61.6719 22.2189 63.1866 24.0566 63.1866 26.8952ZM61.2764 26.8952C61.2764 25.0407 60.3291 23.8215 58.8838 23.8215C57.4639 23.8215 56.5088 25.0664 56.5088 26.8952C56.5088 28.7408 57.4639 29.9768 58.8838 29.9768C60.3291 29.9768 61.2764 28.7664 61.2764 26.8952Z" fill="white"/>
<path d="M73.1514 26.8951C73.1514 29.7416 71.6455 31.5704 69.3731 31.5704C68.7974 31.6009 68.2249 31.4667 67.7211 31.1833C67.2173 30.8999 66.8026 30.4786 66.5244 29.9678H66.4814V34.5048H64.623V22.3147H66.4219V23.8383H66.456C66.747 23.3299 67.1687 22.9109 67.6764 22.6257C68.184 22.3406 68.7585 22.2 69.3389 22.2189C71.6368 22.2189 73.1514 24.0566 73.1514 26.8951ZM71.2412 26.8951C71.2412 25.0407 70.294 23.8215 68.8487 23.8215C67.4287 23.8215 66.4737 25.0663 66.4737 26.8951C66.4737 28.7407 67.4287 29.9767 68.8487 29.9767C70.294 29.9767 71.2412 28.7664 71.2412 26.8951H71.2412Z" fill="white"/>
<path d="M79.7383 27.974C79.876 29.2199 81.0723 30.038 82.7071 30.038C84.2735 30.038 85.4004 29.2199 85.4004 28.0965C85.4004 27.1213 84.7207 26.5375 83.1114 26.1373L81.502 25.7451C79.2217 25.1878 78.1631 24.1089 78.1631 22.3582C78.1631 20.1905 80.0303 18.7016 82.6817 18.7016C85.3057 18.7016 87.1045 20.1905 87.1651 22.3582H85.2891C85.1768 21.1044 84.1524 20.3476 82.6553 20.3476C81.1582 20.3476 80.1338 21.1133 80.1338 22.2278C80.1338 23.116 80.7881 23.6386 82.3887 24.0387L83.7568 24.3786C86.3047 24.9882 87.3633 26.0237 87.3633 27.8613C87.3633 30.2118 85.5127 31.6839 82.5693 31.6839C79.8154 31.6839 77.9561 30.2464 77.8359 27.974L79.7383 27.974Z" fill="white"/>
<path d="M91.375 20.1471V22.3148H93.0967V23.8037H91.375V28.8534C91.375 29.6379 91.7197 30.0034 92.4766 30.0034C92.6809 29.9998 92.885 29.9853 93.0879 29.9599V31.4399C92.7476 31.5043 92.4018 31.5334 92.0557 31.5269C90.2227 31.5269 89.5078 30.8303 89.5078 29.0539V23.8037H88.1914V22.3148H89.5078V20.1471H91.375Z" fill="white"/>
<path d="M94.0938 26.8951C94.0938 24.0131 95.7715 22.2021 98.3877 22.2021C101.013 22.2021 102.683 24.0131 102.683 26.8951C102.683 29.7851 101.021 31.5882 98.3877 31.5882C95.7548 31.5882 94.0938 29.7851 94.0938 26.8951ZM100.789 26.8951C100.789 24.9181 99.8935 23.7513 98.3877 23.7513C96.8818 23.7513 95.9873 24.927 95.9873 26.8951C95.9873 28.88 96.8818 30.038 98.3877 30.038C99.8935 30.038 100.789 28.88 100.789 26.8951H100.789Z" fill="white"/>
<path d="M104.213 22.3147H105.985V23.8738H106.028C106.148 23.3869 106.43 22.9566 106.827 22.6552C107.223 22.3538 107.71 22.1997 108.206 22.2189C108.42 22.2181 108.634 22.2417 108.843 22.289V24.0477C108.572 23.9641 108.29 23.9257 108.008 23.9341C107.738 23.923 107.469 23.9712 107.219 24.0753C106.969 24.1793 106.744 24.3369 106.56 24.5371C106.376 24.7373 106.237 24.9754 106.153 25.2351C106.069 25.4948 106.041 25.7699 106.071 26.0415V31.4745H104.213L104.213 22.3147Z" fill="white"/>
<path d="M117.413 28.7842C117.163 30.447 115.562 31.5882 113.515 31.5882C110.881 31.5882 109.246 29.8028 109.246 26.9386C109.246 24.0655 110.89 22.2021 113.437 22.2021C115.941 22.2021 117.517 23.943 117.517 26.7203V27.3645H111.122V27.4781C111.093 27.8152 111.134 28.1548 111.244 28.4743C111.355 28.7939 111.531 29.086 111.761 29.3314C111.991 29.5768 112.271 29.7698 112.581 29.8976C112.89 30.0254 113.223 30.085 113.558 30.0726C113.997 30.1142 114.437 30.0113 114.814 29.7792C115.191 29.547 115.484 29.1981 115.648 28.7842L117.413 28.7842ZM111.131 26.0504H115.657C115.674 25.7473 115.628 25.444 115.524 25.1595C115.419 24.875 115.257 24.6154 115.049 24.3971C114.84 24.1788 114.59 24.0065 114.312 23.8909C114.035 23.7754 113.737 23.7191 113.437 23.7256C113.134 23.7238 112.834 23.7826 112.554 23.8987C112.274 24.0148 112.019 24.1858 111.805 24.402C111.591 24.6181 111.421 24.8751 111.305 25.158C111.189 25.4409 111.13 25.7442 111.131 26.0504V26.0504Z" fill="white"/>
<path d="M45.8545 9.45441C46.2441 9.42612 46.6351 9.48567 46.9992 9.62876C47.3633 9.77185 47.6915 9.99491 47.9601 10.2819C48.2286 10.5688 48.4309 10.9125 48.5523 11.2881C48.6737 11.6637 48.7112 12.0619 48.6621 12.454C48.6621 14.3826 47.6318 15.4912 45.8545 15.4912H43.6992V9.45441H45.8545ZM44.626 14.6374H45.751C46.0294 14.6543 46.308 14.6081 46.5665 14.5023C46.8251 14.3964 47.057 14.2336 47.2455 14.0256C47.434 13.8176 47.5743 13.5698 47.6562 13.3C47.738 13.0303 47.7594 12.7454 47.7187 12.4663C47.7564 12.1882 47.7329 11.9052 47.6498 11.6374C47.5667 11.3697 47.426 11.1238 47.238 10.9175C47.0499 10.7112 46.8191 10.5495 46.562 10.444C46.3049 10.3386 46.028 10.2919 45.751 10.3075H44.626V14.6374Z" fill="white"/>
<path d="M49.7093 13.2113C49.681 12.9119 49.7148 12.6098 49.8086 12.3244C49.9025 12.0391 50.0542 11.7767 50.2542 11.5541C50.4541 11.3316 50.6978 11.1537 50.9697 11.032C51.2415 10.9104 51.5355 10.8475 51.8328 10.8475C52.1301 10.8475 52.4241 10.9104 52.6959 11.032C52.9678 11.1537 53.2115 11.3316 53.4114 11.5541C53.6114 11.7767 53.7631 12.0391 53.857 12.3244C53.9508 12.6098 53.9846 12.9119 53.9563 13.2113C53.9852 13.511 53.9517 13.8134 53.8581 14.0993C53.7645 14.3851 53.6129 14.648 53.4129 14.871C53.2129 15.094 52.969 15.2722 52.6969 15.3941C52.4248 15.5161 52.1304 15.5791 51.8328 15.5791C51.5352 15.5791 51.2408 15.5161 50.9687 15.3941C50.6966 15.2722 50.4527 15.094 50.2527 14.871C50.0527 14.648 49.9011 14.3851 49.8075 14.0993C49.7139 13.8134 49.6804 13.511 49.7093 13.2113V13.2113ZM53.0423 13.2113C53.0423 12.2238 52.6038 11.6463 51.8343 11.6463C51.0618 11.6463 50.6273 12.2238 50.6273 13.2113C50.6273 14.2067 51.0618 14.7797 51.8343 14.7797C52.6038 14.7797 53.0423 14.2027 53.0423 13.2113H53.0423Z" fill="white"/>
<path d="M59.6016 15.4911H58.6797L57.749 12.1358H57.6787L56.752 15.4911H55.8389L54.5977 10.9354H55.499L56.3057 14.4117H56.3721L57.2979 10.9354H58.1504L59.0762 14.4117H59.1465L59.9492 10.9354H60.8379L59.6016 15.4911Z" fill="white"/>
<path d="M61.8809 10.9354H62.7363V11.6591H62.8027C62.9154 11.3992 63.1054 11.1813 63.3463 11.0358C63.5871 10.8903 63.8669 10.8244 64.1465 10.8474C64.3656 10.8308 64.5856 10.8642 64.7902 10.9452C64.9948 11.0263 65.1787 11.1528 65.3284 11.3156C65.4781 11.4783 65.5897 11.673 65.6549 11.8853C65.7201 12.0976 65.7372 12.322 65.7051 12.5419V15.491H64.8164V12.7676C64.8164 12.0355 64.502 11.6714 63.8447 11.6714C63.696 11.6644 63.5475 11.6901 63.4094 11.7465C63.2714 11.803 63.147 11.889 63.0449 11.9987C62.9428 12.1083 62.8653 12.239 62.8177 12.3818C62.7702 12.5246 62.7538 12.6761 62.7695 12.8259V15.4911H61.8809L61.8809 10.9354Z" fill="white"/>
<path d="M67.1211 9.15697H68.0098V15.4911H67.1211V9.15697Z" fill="white"/>
<path d="M69.2463 13.2113C69.2181 12.9119 69.2519 12.6098 69.3458 12.3244C69.4397 12.039 69.5914 11.7766 69.7914 11.5541C69.9914 11.3315 70.2351 11.1537 70.507 11.032C70.7788 10.9103 71.0728 10.8474 71.3701 10.8474C71.6674 10.8474 71.9614 10.9103 72.2333 11.032C72.5052 11.1537 72.7489 11.3315 72.9489 11.5541C73.1488 11.7766 73.3006 12.039 73.3945 12.3244C73.4883 12.6098 73.5222 12.9119 73.4939 13.2113C73.5227 13.511 73.4892 13.8135 73.3956 14.0993C73.302 14.3851 73.1503 14.648 72.9503 14.871C72.7503 15.094 72.5064 15.2722 72.2342 15.3941C71.9621 15.516 71.6678 15.579 71.3701 15.579C71.0725 15.579 70.7782 15.516 70.506 15.3941C70.2339 15.2722 69.99 15.094 69.79 14.871C69.59 14.648 69.4383 14.3851 69.3446 14.0993C69.251 13.8135 69.2175 13.511 69.2463 13.2113V13.2113ZM72.5793 13.2113C72.5793 12.2238 72.1409 11.6463 71.3713 11.6463C70.5989 11.6463 70.1644 12.2238 70.1644 13.2113C70.1644 14.2067 70.5989 14.7797 71.3713 14.7797C72.1409 14.7797 72.5794 14.2027 72.5794 13.2113H72.5793Z" fill="white"/>
<path d="M74.4297 14.2027C74.4297 13.3827 75.0332 12.9099 76.1045 12.8427L77.3242 12.7716V12.3784C77.3242 11.8972 77.0098 11.6255 76.4023 11.6255C75.9063 11.6255 75.5625 11.8098 75.4639 12.1319H74.6035C74.6943 11.3494 75.4219 10.8475 76.4434 10.8475C77.5723 10.8475 78.209 11.4161 78.209 12.3784V15.4911H77.3535V14.8509H77.2832C77.1405 15.0805 76.9401 15.2677 76.7025 15.3934C76.4648 15.5191 76.1985 15.5787 75.9307 15.5662C75.7416 15.5861 75.5506 15.5656 75.3698 15.5063C75.1891 15.4469 75.0226 15.3498 74.8812 15.2214C74.7398 15.0929 74.6265 14.9359 74.5488 14.7605C74.471 14.585 74.4304 14.395 74.4297 14.2027V14.2027ZM77.3242 13.8135V13.4326L76.2246 13.5037C75.6045 13.5457 75.3232 13.7591 75.3232 14.1607C75.3232 14.5708 75.6748 14.8094 76.1582 14.8094C76.2999 14.8239 76.443 14.8094 76.579 14.7668C76.715 14.7242 76.8411 14.6544 76.9499 14.5615C77.0587 14.4686 77.1479 14.3545 77.2122 14.226C77.2765 14.0974 77.3146 13.9572 77.3242 13.8135V13.8135Z" fill="white"/>
<path d="M79.377 13.2113C79.377 11.7717 80.1084 10.8598 81.2461 10.8598C81.5275 10.8467 81.8068 10.9149 82.0513 11.0564C82.2959 11.198 82.4955 11.407 82.627 11.6591H82.6934V9.15697H83.582V15.4911H82.7305V14.7713H82.6602C82.5186 15.0217 82.3119 15.2281 82.0627 15.3682C81.8134 15.5083 81.531 15.5768 81.2461 15.5662C80.1006 15.5662 79.377 14.6543 79.377 13.2113ZM80.295 13.2113C80.295 14.1775 80.7452 14.759 81.4981 14.759C82.2471 14.759 82.71 14.1692 82.71 13.2152C82.71 12.2657 82.2422 11.6675 81.4981 11.6675C80.75 11.6675 80.2949 12.2529 80.2949 13.2113H80.295Z" fill="white"/>
<path d="M87.2581 13.2113C87.2298 12.9119 87.2636 12.6098 87.3575 12.3244C87.4513 12.0391 87.6031 11.7767 87.803 11.5541C88.003 11.3316 88.2467 11.1537 88.5185 11.032C88.7904 10.9104 89.0844 10.8475 89.3816 10.8475C89.6789 10.8475 89.9729 10.9104 90.2447 11.032C90.5166 11.1537 90.7603 11.3316 90.9602 11.5541C91.1602 11.7767 91.3119 12.0391 91.4058 12.3244C91.4996 12.6098 91.5335 12.9119 91.5052 13.2113C91.534 13.511 91.5006 13.8134 91.407 14.0993C91.3134 14.3851 91.1617 14.648 90.9617 14.871C90.7617 15.094 90.5178 15.2722 90.2457 15.3941C89.9736 15.5161 89.6793 15.5791 89.3816 15.5791C89.084 15.5791 88.7897 15.5161 88.5175 15.3941C88.2454 15.2722 88.0015 15.094 87.8015 14.871C87.6015 14.648 87.4499 14.3851 87.3563 14.0993C87.2627 13.8134 87.2292 13.511 87.2581 13.2113V13.2113ZM90.5911 13.2113C90.5911 12.2238 90.1526 11.6463 89.3831 11.6463C88.6106 11.6463 88.1761 12.2238 88.1761 13.2113C88.1761 14.2067 88.6107 14.7797 89.3831 14.7797C90.1526 14.7797 90.5911 14.2027 90.5911 13.2113Z" fill="white"/>
<path d="M92.6973 10.9354H93.5527V11.6591H93.6191C93.7318 11.3992 93.9218 11.1813 94.1627 11.0358C94.4035 10.8903 94.6833 10.8244 94.9629 10.8474C95.182 10.8308 95.402 10.8642 95.6066 10.9452C95.8112 11.0263 95.9951 11.1528 96.1448 11.3156C96.2945 11.4783 96.4061 11.673 96.4713 11.8853C96.5365 12.0976 96.5536 12.322 96.5215 12.5419V15.491H95.6328V12.7676C95.6328 12.0355 95.3184 11.6714 94.6611 11.6714C94.5124 11.6644 94.3639 11.6901 94.2258 11.7465C94.0878 11.803 93.9634 11.889 93.8613 11.9987C93.7592 12.1083 93.6817 12.239 93.6342 12.3818C93.5866 12.5246 93.5702 12.6761 93.5859 12.8259V15.4911H92.6973V10.9354Z" fill="white"/>
<path d="M101.544 9.80116V10.9561H102.52V11.7135H101.544V14.056C101.544 14.5332 101.738 14.7422 102.181 14.7422C102.294 14.7418 102.407 14.7349 102.52 14.7214V15.4703C102.36 15.4992 102.198 15.5146 102.036 15.5163C101.048 15.5163 100.654 15.1645 100.654 14.2862V11.7134H99.9395V10.9561H100.654V9.80116H101.544Z" fill="white"/>
<path d="M103.732 9.15697H104.613V11.6675H104.684C104.802 11.4051 104.997 11.186 105.243 11.04C105.488 10.8939 105.773 10.8281 106.057 10.8514C106.275 10.8394 106.492 10.8762 106.695 10.9592C106.897 11.0422 107.079 11.1694 107.227 11.3316C107.375 11.4938 107.486 11.6871 107.552 11.8977C107.617 12.1082 107.636 12.3309 107.607 12.5498V15.4911H106.718V12.7716C106.718 12.0439 106.383 11.6754 105.755 11.6754C105.602 11.6627 105.449 11.684 105.305 11.7376C105.161 11.7913 105.031 11.8761 104.923 11.9861C104.815 12.0961 104.732 12.2287 104.68 12.3745C104.627 12.5204 104.608 12.6759 104.621 12.8304V15.4911H103.732L103.732 9.15697Z" fill="white"/>
<path d="M112.789 14.261C112.668 14.6774 112.406 15.0375 112.05 15.2785C111.693 15.5194 111.264 15.6258 110.838 15.579C110.541 15.5869 110.246 15.5294 109.974 15.4105C109.701 15.2916 109.457 15.1142 109.26 14.8904C109.062 14.6667 108.914 14.4021 108.827 14.1149C108.741 13.8278 108.717 13.525 108.757 13.2276C108.718 12.9292 108.742 12.6258 108.829 12.3378C108.915 12.0498 109.062 11.7839 109.259 11.5582C109.456 11.3325 109.698 11.1523 109.97 11.0297C110.242 10.907 110.536 10.8449 110.834 10.8475C112.087 10.8475 112.842 11.7135 112.842 13.1441V13.4578H109.663V13.5082C109.649 13.6753 109.67 13.8436 109.724 14.0022C109.778 14.1608 109.864 14.3062 109.977 14.4291C110.09 14.552 110.227 14.6496 110.379 14.7158C110.532 14.7819 110.696 14.8151 110.862 14.8133C111.075 14.8391 111.29 14.8004 111.481 14.702C111.671 14.6037 111.829 14.4502 111.933 14.261L112.789 14.261ZM109.663 12.7928H111.937C111.948 12.6399 111.928 12.4864 111.877 12.342C111.826 12.1976 111.746 12.0656 111.641 11.9544C111.537 11.8433 111.411 11.7555 111.271 11.6966C111.131 11.6377 110.98 11.6092 110.829 11.6127C110.675 11.6107 110.523 11.6399 110.38 11.6985C110.238 11.7572 110.108 11.844 110 11.954C109.891 12.064 109.805 12.1949 109.747 12.3389C109.69 12.483 109.661 12.6373 109.663 12.7928H109.663Z" fill="white"/>
</svg>
